<?xml version="1.0" encoding="UTF-8" standalone="no"?>
<!-- Created with Inkscape (http://www.inkscape.org/) -->

<svg
   width="57.502773mm"
   height="57.502773mm"
   viewBox="0 0 57.502773 57.502773"
   version="1.1"
   id="svg1"
   inkscape:version="1.3 (0e150ed6c4, 2023-07-21)"
   sodipodi:docname="logo instagram - image par Sasiepre de Pixabay.svg"
   xmlns:inkscape="http://www.inkscape.org/namespaces/inkscape"
   xmlns:sodipodi="http://sodipodi.sourceforge.net/DTD/sodipodi-0.dtd"
   xmlns="http://www.w3.org/2000/svg"
   xmlns:svg="http://www.w3.org/2000/svg">
  <sodipodi:namedview
     id="namedview1"
     pagecolor="#ffffff"
     bordercolor="#000000"
     borderopacity="0.25"
     inkscape:showpageshadow="2"
     inkscape:pageopacity="0.0"
     inkscape:pagecheckerboard="0"
     inkscape:deskcolor="#d1d1d1"
     inkscape:document-units="mm"
     inkscape:zoom="5.5375421"
     inkscape:cx="85.597544"
     inkscape:cy="113.31742"
     inkscape:window-width="1920"
     inkscape:window-height="991"
     inkscape:window-x="-9"
     inkscape:window-y="-9"
     inkscape:window-maximized="1"
     inkscape:current-layer="layer1" />
  <defs
     id="defs1">
    <clipPath
       clipPathUnits="userSpaceOnUse"
       id="clipPath6">
      <path
         d="M 0,366 H 990 V 0 H 0 Z"
         transform="translate(-477.00001,-181.5)"
         id="path6" />
    </clipPath>
    <clipPath
       clipPathUnits="userSpaceOnUse"
       id="clipPath8">
      <path
         d="M 0,366 H 990 V 0 H 0 Z"
         transform="translate(-476.29001,-170.71)"
         id="path8" />
    </clipPath>
    <clipPath
       clipPathUnits="userSpaceOnUse"
       id="clipPath20">
      <path
         d="M 0,366 H 990 V 0 H 0 Z"
         transform="translate(-433.00001,-160.37991)"
         id="path20" />
    </clipPath>
    <clipPath
       clipPathUnits="userSpaceOnUse"
       id="clipPath22">
      <path
         d="M 0,366 H 990 V 0 H 0 Z"
         transform="translate(-433.00001,-201.62011)"
         id="path22" />
    </clipPath>
    <clipPath
       clipPathUnits="userSpaceOnUse"
       id="clipPath24">
      <path
         d="M 0,366 H 990 V 0 H 0 Z"
         transform="translate(-395.00001,-164.9287)"
         id="path24" />
    </clipPath>
    <clipPath
       clipPathUnits="userSpaceOnUse"
       id="clipPath30">
      <path
         d="M 0,366 H 990 V 0 H 0 Z"
         transform="translate(-418.96441,-200.9287)"
         id="path30" />
    </clipPath>
  </defs>
  <g
     inkscape:label="Calque 1"
     inkscape:groupmode="layer"
     id="layer1"
     transform="translate(-67.204165,-102.65833)">
    <path
       id="path5"
       d="m 0,0 c 0,-45.011 -36.489,-81.5 -81.5,-81.5 -45.011,0 -81.5,36.489 -81.5,81.5 0,45.011 36.489,81.5 81.5,81.5 C -36.489,81.5 0,45.011 0,0"
       style="fill:#4d4d4d;fill-opacity:1;fill-rule:nonzero;stroke:none"
       transform="matrix(0.35277776,0,0,-0.35277776,124.70694,131.40972)"
       clip-path="url(#clipPath6)" />
    <path
       id="path7"
       d="m 0,0 c -4.89,-36.97 -34.57,-66.13 -71.79,-70.21 l -42.38,42.38 c -5.51,3.87 -9.12,10.27 -9.12,17.5 v 41.24 c 0,11.79 9.59,21.38 21.38,21.38 h 41.24 c 7.23,0 13.63,-3.61 17.5,-9.12 z"
       style="fill:#000000 icc-color(sRGB-IEC61966-2, 0.1, 0, 0, 0);fill-opacity:1;fill-rule:nonzero;stroke:none"
       transform="matrix(0.35277776,0,0,-0.35277776,124.45647,135.21619)"
       clip-path="url(#clipPath8)" />
    <path
       id="path19"
       d="M 0,0 C 0,-9.58 -7.8,-17.38 -17.38,-17.38 H -58.62 C -68.2,-17.38 -76,-9.58 -76,0 v 41.24 c 0,9.58 7.8,17.38 17.38,17.38 h 41.24 C -7.8,58.62 0,50.82 0,41.24 Z m 0.12,53.5 c -3.87,5.51 -10.27,9.12 -17.5,9.12 H -58.62 C -70.41,62.62 -80,53.03 -80,41.24 V 0 c 0,-7.23 3.61,-13.63 9.12,-17.5 3.47,-2.44 7.7,-3.88 12.26,-3.88 h 41.24 C -5.59,-21.38 4,-11.79 4,0 V 41.24 C 4,45.8 2.56,50.03 0.12,53.5"
       style="fill:#ffffff;fill-opacity:0.99798793;fill-rule:nonzero;stroke:none"
       transform="matrix(0.35277776,0,0,-0.35277776,109.18472,138.86042)"
       clip-path="url(#clipPath20)" />
    <path
       id="path21"
       d="m 0,0 v -41.24 c 0,-9.58 -7.8,-17.38 -17.38,-17.38 h -41.24 c -9.58,0 -17.38,7.8 -17.38,17.38 V 0 c 0,9.58 7.8,17.38 17.38,17.38 h 41.24 C -7.8,17.38 0,9.58 0,0"
       style="fill:#4d4d4d;fill-opacity:0.99597585;fill-rule:nonzero;stroke:none"
       transform="matrix(0.35277776,0,0,-0.35277776,109.18472,124.3118)"
       clip-path="url(#clipPath22)" />
    <path
       id="path23"
       d="m 0,0 v 0 c -8.876,0 -16.071,7.195 -16.071,16.071 0,8.876 7.195,16.072 16.071,16.072 8.876,0 16.071,-7.196 16.071,-16.072 C 16.071,7.195 8.876,0 0,0 Z"
       style="fill:none;stroke:#ffffff;stroke-width:4;stroke-linecap:butt;stroke-linejoin:miter;stroke-miterlimit:10;stroke-dasharray:none;stroke-opacity:1"
       transform="matrix(0.35277776,0,0,-0.35277776,95.779168,137.25571)"
       clip-path="url(#clipPath24)" />
    <path
       id="path29"
       d="m 0,0 v 0 c -2.229,0 -4.036,1.807 -4.036,4.036 0,2.229 1.807,4.035 4.036,4.035 2.229,0 4.036,-1.806 4.036,-4.035 C 4.036,1.807 2.229,0 0,0"
       style="fill:#ffffff;fill-opacity:1;fill-rule:nonzero;stroke:none"
       transform="matrix(0.35277776,0,0,-0.35277776,104.23328,124.55571)"
       clip-path="url(#clipPath30)" />
  </g>
</svg>
