<?xml version="1.0" encoding="UTF-8" standalone="no"?>
<!-- Created with Inkscape (http://www.inkscape.org/) -->

<svg
   width="57.502773mm"
   height="57.502773mm"
   viewBox="0 0 57.502773 57.502773"
   version="1.1"
   id="svg1"
   inkscape:version="1.3 (0e150ed6c4, 2023-07-21)"
   sodipodi:docname="logo facebook - image par Sasiepre de Pixabay.svg"
   xmlns:inkscape="http://www.inkscape.org/namespaces/inkscape"
   xmlns:sodipodi="http://sodipodi.sourceforge.net/DTD/sodipodi-0.dtd"
   xmlns="http://www.w3.org/2000/svg"
   xmlns:svg="http://www.w3.org/2000/svg">
  <sodipodi:namedview
     id="namedview1"
     pagecolor="#ffffff"
     bordercolor="#000000"
     borderopacity="0.25"
     inkscape:showpageshadow="2"
     inkscape:pageopacity="0.0"
     inkscape:pagecheckerboard="0"
     inkscape:deskcolor="#d1d1d1"
     inkscape:document-units="mm"
     inkscape:zoom="0.69219276"
     inkscape:cx="-80.90232"
     inkscape:cy="228.98246"
     inkscape:window-width="1920"
     inkscape:window-height="991"
     inkscape:window-x="-9"
     inkscape:window-y="-9"
     inkscape:window-maximized="1"
     inkscape:current-layer="layer1" />
  <defs
     id="defs1">
    <clipPath
       clipPathUnits="userSpaceOnUse"
       id="clipPath10">
      <path
         d="M 0,366 H 990 V 0 H 0 Z"
         transform="translate(-263.00001,-184.5)"
         id="path10" />
    </clipPath>
    <clipPath
       clipPathUnits="userSpaceOnUse"
       id="clipPath10-1">
      <path
         d="M 0,366 H 990 V 0 H 0 Z"
         transform="translate(-263.00001,-184.5)"
         id="path10-3" />
    </clipPath>
    <clipPath
       clipPathUnits="userSpaceOnUse"
       id="clipPath12">
      <path
         d="M 0,366 H 990 V 0 H 0 Z"
         transform="translate(-259.1899,-159.8101)"
         id="path12" />
    </clipPath>
    <clipPath
       clipPathUnits="userSpaceOnUse"
       id="clipPath14">
      <path
         d="M 0,366 H 990 V 0 H 0 Z"
         transform="translate(-231.71001,-120.29001)"
         id="path14" />
    </clipPath>
    <clipPath
       clipPathUnits="userSpaceOnUse"
       id="clipPath16">
      <path
         d="M 0,366 H 990 V 0 H 0 Z"
         transform="translate(-191.4502,-214.0801)"
         id="path16" />
    </clipPath>
    <clipPath
       clipPathUnits="userSpaceOnUse"
       id="clipPath18">
      <path
         d="M 0,366 H 990 V 0 H 0 Z"
         transform="translate(-195.50001,-214.98001)"
         id="path18" />
    </clipPath>
    <clipPath
       clipPathUnits="userSpaceOnUse"
       id="clipPath46">
      <path
         d="M 0,366 H 990 V 0 H 0 Z"
         transform="translate(-191.4502,-214.0801)"
         id="path46" />
    </clipPath>
    <clipPath
       clipPathUnits="userSpaceOnUse"
       id="clipPath48">
      <path
         d="M 0,366 H 990 V 0 H 0 Z"
         transform="translate(-195.50001,-214.98001)"
         id="path48" />
    </clipPath>
  </defs>
  <g
     inkscape:label="Calque 1"
     inkscape:groupmode="layer"
     id="layer1"
     transform="translate(-126.47084,-87.841663)">
    <path
       id="path9"
       d="m 0,0 c 0,-45.011 -36.489,-81.5 -81.5,-81.5 -45.011,0 -81.5,36.489 -81.5,81.5 0,45.011 36.489,81.5 81.5,81.5 C -36.489,81.5 0,45.011 0,0"
       style="fill:#4d4d4d;fill-opacity:1;fill-rule:nonzero;stroke:none"
       transform="matrix(0.35277776,0,0,-0.35277776,183.97361,116.59305)"
       clip-path="url(#clipPath10-1)" />
    <path
       id="path11"
       d="M 0,0 C -5.02,-15.81 -14.72,-29.52 -27.48,-39.52 L -75,8 v 18.56 h 10.72 c 0.83,0 1.5,0.67 1.5,1.5 v 7.12 c 0,0.83 -0.67,1.5 -1.5,1.5 H -75 v 6.55 c 0,8.55 4.15,9.54 7.26,9.54 1.8,0 3.42,-0.39 4.81,-1.18 0.47,-0.26 1.04,-0.26 1.5,0.01 0.46,0.27 0.74,0.77 0.74,1.3 v 7.53 c 0,0.1 -0.01,0.2 -0.04,0.3 z"
       style="fill:#000000;fill-opacity:1;fill-rule:nonzero;stroke:none"
       transform="matrix(0.35277776,0,0,-0.35277776,182.62949,125.3031)"
       clip-path="url(#clipPath12)" />
    <path
       id="path13"
       d="m 0,0 c -6.94,-5.43 -14.79,-9.76 -23.27,-12.73 l -33.8,33.8 h -0.24 c -0.83,0 -1.5,0.67 -1.5,1.5 v 36.24 l -7.27,7.27 h -0.14 c -0.83,0 -1.5,0.67 -1.5,1.5 v 7.12 c 0,0.83 0.67,1.5 1.5,1.5 h 7.41 v 6.95 c 0,5.85 1.74,10.57 5.17,14.02 3.43,3.45 7.76,5.2 12.87,5.2 2.77,0 4.94,-0.34 6.63,-1.03 0.47,-0.19 0.8,-0.61 0.89,-1.09 0.03,-0.1 0.04,-0.2 0.04,-0.3 v -7.53 c 0,-0.53 -0.28,-1.03 -0.74,-1.3 -0.46,-0.27 -1.03,-0.27 -1.5,-0.01 -1.39,0.79 -3.01,1.18 -4.81,1.18 -3.11,0 -7.26,-0.99 -7.26,-9.54 V 76.2 h 10.72 c 0.83,0 1.5,-0.67 1.5,-1.5 v -7.12 c 0,-0.83 -0.67,-1.5 -1.5,-1.5 H -47.52 V 47.52 Z"
       style="fill:#000000 icc-color(sRGB-IEC61966-2, 0.1, 0, 0, 0);fill-opacity:1;fill-rule:nonzero;stroke:none"
       transform="matrix(0.35277776,0,0,-0.35277776,172.93519,139.24491)"
       clip-path="url(#clipPath14)" />
    <path
       id="path15"
       d="m 0,0 c 2.07,0 3.92,-0.46 5.55,-1.37 v 7.53 c -1.49,0.61 -3.51,0.92 -6.06,0.92 -4.72,0 -8.65,-1.59 -11.81,-4.76 -3.15,-3.17 -4.73,-7.49 -4.73,-12.96 v -8.45 h -8.91 v -7.12 h 8.91 v -45.01 h 8.3 v 45.01 H 3.46 v 7.12 H -8.75 v 8.05 C -8.75,-3.68 -5.84,0 0,0"
       style="fill:#f2f2f2 icc-color(sRGB-IEC61966-2, 0.1, 0.94898987, 0.94898987, 0.94898987);fill-opacity:1;fill-rule:nonzero;stroke:none"
       transform="matrix(0.35277776,0,0,-0.35277776,158.73243,106.15785)"
       clip-path="url(#clipPath16)" />
    <path
       id="path17"
       d="m 0,0 c -1.26,0.4 -2.62,0.6 -4.05,0.6 -4.68,0 -10.26,-2.17 -10.26,-12.54 v -8.05 c 0,-0.83 0.68,-1.5 1.5,-1.5 h 10.72 v -4.12 h -10.72 c -0.82,0 -1.5,-0.68 -1.5,-1.5 v -43.51 h -5.29 v 43.51 c 0,0.82 -0.67,1.5 -1.5,1.5 h -7.41 v 4.12 h 7.41 c 0.83,0 1.5,0.67 1.5,1.5 v 8.45 c 0,5.1 1.4,8.99 4.29,11.9 2.89,2.91 6.41,4.32 10.75,4.32 1.83,0 3.36,-0.17 4.56,-0.49 z M 2.96,5.56 C 2.87,6.04 2.54,6.46 2.07,6.65 0.38,7.34 -1.79,7.68 -4.56,7.68 -9.67,7.68 -14,5.93 -17.43,2.48 -20.86,-0.97 -22.6,-5.69 -22.6,-11.54 v -6.95 h -7.41 c -0.83,0 -1.5,-0.67 -1.5,-1.5 v -7.12 c 0,-0.83 0.67,-1.5 1.5,-1.5 h 7.41 v -43.51 c 0,-0.83 0.67,-1.5 1.5,-1.5 h 8.29 c 0.83,0 1.5,0.67 1.5,1.5 v 43.51 h 10.72 c 0.83,0 1.5,0.67 1.5,1.5 v 7.12 c 0,0.83 -0.67,1.5 -1.5,1.5 h -10.72 v 6.55 c 0,8.55 4.15,9.54 7.26,9.54 1.8,0 3.42,-0.39 4.81,-1.18 0.47,-0.26 1.04,-0.26 1.5,0.01 C 2.72,-3.3 3,-2.8 3,-2.27 v 7.53 c 0,0.1 -0.01,0.2 -0.04,0.3"
       style="fill:#ffffff icc-color(sRGB-IEC61966-2, 0.1, 1, 1, 1);fill-opacity:1;fill-rule:nonzero;stroke:none"
       transform="matrix(0.35277776,0,0,-0.35277776,160.16111,105.84039)"
       clip-path="url(#clipPath18)" />
    <path
       id="path45"
       d="m 0,0 c 2.07,0 3.92,-0.46 5.55,-1.37 v 7.53 c -1.49,0.61 -3.51,0.92 -6.06,0.92 -4.72,0 -8.65,-1.59 -11.81,-4.76 -3.15,-3.17 -4.73,-7.49 -4.73,-12.96 v -8.45 h -8.91 v -7.12 h 8.91 v -45.01 h 8.3 v 45.01 H 3.46 v 7.12 H -8.75 v 8.05 C -8.75,-3.68 -5.84,0 0,0"
       style="fill:#ffffff;fill-opacity:1;fill-rule:nonzero;stroke:#ffffff;stroke-opacity:1"
       transform="matrix(0.35277776,0,0,-0.35277776,158.73243,106.15785)"
       clip-path="url(#clipPath46)" />
  </g>
</svg>
