<?xml version="1.0" encoding="UTF-8" standalone="no"?>
<!-- Created with Inkscape (http://www.inkscape.org/) -->

<svg
   width="57.502773mm"
   height="57.502773mm"
   viewBox="0 0 57.502773 57.502773"
   version="1.1"
   id="svg1"
   inkscape:version="1.3 (0e150ed6c4, 2023-07-21)"
   sodipodi:docname="logo linkedin - image par Sasiepre de Pixabay.svg"
   xmlns:inkscape="http://www.inkscape.org/namespaces/inkscape"
   xmlns:sodipodi="http://sodipodi.sourceforge.net/DTD/sodipodi-0.dtd"
   xmlns="http://www.w3.org/2000/svg"
   xmlns:svg="http://www.w3.org/2000/svg">
  <sodipodi:namedview
     id="namedview1"
     pagecolor="#ffffff"
     bordercolor="#000000"
     borderopacity="0.25"
     inkscape:showpageshadow="2"
     inkscape:pageopacity="0.0"
     inkscape:pagecheckerboard="0"
     inkscape:deskcolor="#d1d1d1"
     inkscape:document-units="mm"
     inkscape:zoom="0.69219276"
     inkscape:cx="-70.78953"
     inkscape:cy="124.96519"
     inkscape:window-width="1920"
     inkscape:window-height="991"
     inkscape:window-x="-9"
     inkscape:window-y="-9"
     inkscape:window-maximized="1"
     inkscape:current-layer="layer1" />
  <defs
     id="defs1">
    <clipPath
       clipPathUnits="userSpaceOnUse"
       id="clipPath2">
      <path
         d="M 0,366 H 990 V 0 H 0 Z"
         transform="translate(-890.00005,-182.5)"
         id="path2" />
    </clipPath>
    <clipPath
       clipPathUnits="userSpaceOnUse"
       id="clipPath28">
      <path
         d="M 0,366 H 990 V 0 H 0 Z"
         transform="translate(-885.17972,-154.8198)"
         id="path28" />
    </clipPath>
    <clipPath
       clipPathUnits="userSpaceOnUse"
       id="clipPath34">
      <path
         d="M 0,366 H 990 V 0 H 0 Z"
         transform="translate(-792.40329,-213.9478)"
         id="path34" />
    </clipPath>
    <clipPath
       clipPathUnits="userSpaceOnUse"
       id="clipPath36">
      <path
         d="M 0,366 H 990 V 0 H 0 Z"
         transform="translate(-790.90044,-213.9502)"
         id="path36" />
    </clipPath>
    <clipPath
       clipPathUnits="userSpaceOnUse"
       id="clipPath38">
      <path
         d="M 0,366 H 990 V 0 H 0 Z"
         transform="translate(-791.15432,-151.252)"
         id="path38" />
    </clipPath>
    <clipPath
       clipPathUnits="userSpaceOnUse"
       id="clipPath40">
      <path
         d="M 0,366 H 990 V 0 H 0 Z"
         transform="translate(-789.65042,-151.28031)"
         id="path40" />
    </clipPath>
    <clipPath
       clipPathUnits="userSpaceOnUse"
       id="clipPath42">
      <path
         d="M 0,366 H 990 V 0 H 0 Z"
         transform="translate(-847.999,-165.50001)"
         id="path42" />
    </clipPath>
    <clipPath
       clipPathUnits="userSpaceOnUse"
       id="clipPath44">
      <path
         d="M 0,366 H 990 V 0 H 0 Z"
         transform="translate(-846.50005,-161.6899)"
         id="path44" />
    </clipPath>
  </defs>
  <g
     inkscape:label="Calque 1"
     inkscape:groupmode="layer"
     id="layer1"
     transform="translate(-123.82501,-115.62291)">
    <path
       id="path1"
       d="m 0,0 c 0,-45.011 -36.489,-81.5 -81.5,-81.5 -45.011,0 -81.5,36.489 -81.5,81.5 0,45.011 36.489,81.5 81.5,81.5 C -36.489,81.5 0,45.011 0,0"
       style="fill:#4d4d4d icc-color(sRGB-IEC61966-2, 0.1, 0.30198669, 0.30198669, 0.30198669);fill-opacity:1;fill-rule:nonzero;stroke:none"
       transform="matrix(0.35277776,0,0,-0.35277776,181.32778,144.3743)"
       clip-path="url(#clipPath2)" />
    <path
       id="path27"
       d="m 0,0 c -2.14,-5.91 -4.93,-11.5 -8.31,-16.69 -0.52,-0.81 -1.06,-1.6 -1.61,-2.39 -2.729,-3.89 -5.779,-7.52 -9.13,-10.87 -1.17,-1.17 -2.37,-2.3 -3.61,-3.39 -6.31,-5.6 -13.5,-10.23 -21.34,-13.66 -5.81,-2.55 -11.979,-4.44 -18.42,-5.58 l -46.14,46.14 c -0.389,0.1 -0.83,0.3 -1.2,0.66 -0.719,0.71 -0.8,1.68 -0.79,2.35 0.021,9.02 0.021,18.04 0.01,27.07 v 18.05 c 0,2.68 0.681,3.37 3.32,3.38 h 3.91 c 0.75,0 1.5,0 2.25,-0.01 l -4.82,4.82 c -3.89,1.72 -5.689,5.58 -5.7,9.19 -0.01,4.96 3.42,10.07 10.011,10.24 h 0.009 c 2.781,0 5.361,-1.07 7.3,-3.02 0.941,-0.94 1.68,-2.03 2.18,-3.21 l 18.02,-18.02 c 0.84,0 1.701,0.01 2.581,0.02 0.37,0 1.469,0.02 2.25,-0.78 0.099,-0.11 0.189,-0.22 0.269,-0.34 l 1.78,-1.78 c 5.72,4.72 14.281,5.04 20.941,2.51 1.26,-0.48 2.409,-1.12 3.449,-1.9 1.03,-0.77 1.95,-1.69 2.761,-2.76 z"
       style="fill:#000000 icc-color(sRGB-IEC61966-2, 0.1, 0, 0, 0);fill-opacity:1;fill-rule:nonzero;stroke:none"
       transform="matrix(0.35277776,0,0,-0.35277776,179.62727,154.13926)"
       clip-path="url(#clipPath28)" />
    <path
       id="path33"
       d="M 0,0 C -0.008,-4.837 -3.868,-8.668 -8.735,-8.668 -20.216,-8.417 -20.098,8.385 -8.755,8.681 -3.949,8.686 0.01,4.764 0,0"
       style="fill:#ffffff icc-color(sRGB-IEC61966-2, 0.1, 1, 1, 1);fill-opacity:1;fill-rule:nonzero;stroke:none"
       transform="matrix(0.35277776,0,0,-0.35277776,146.89781,133.28022)"
       clip-path="url(#clipPath34)" />
    <path
       id="path35"
       d="m 0,0 c 0,-4.02 -3.181,-7.17 -7.2,-7.17 -4.891,0.11 -7.09,3.65 -7.101,7.11 -0.01,3.4 2.21,7.11 7.051,7.24 h 0.01 c 1.929,0 3.76,-0.76 5.139,-2.14 C -0.75,3.68 0,1.91 0,0.04 Z M 2.199,3.95 C 1.699,5.13 0.96,6.22 0.02,7.16 c -1.94,1.95 -4.52,3.02 -7.3,3.02 h -0.01 c -6.591,-0.17 -10.021,-5.28 -10.011,-10.24 0.011,-3.61 1.811,-7.47 5.7,-9.19 1.241,-0.55 2.691,-0.88 4.371,-0.92 5.73,0 10.219,4.46 10.23,10.16 0.01,1.38 -0.271,2.72 -0.801,3.96"
       style="fill:#ffffff icc-color(sRGB-IEC61966-2, 0.1, 1, 1, 1);fill-opacity:1;fill-rule:nonzero;stroke:none"
       transform="matrix(0.35277776,0,0,-0.35277776,146.36764,133.27937)"
       clip-path="url(#clipPath36)" />
    <path
       id="path37"
       d="m 0,0 c 0.003,-1.136 -0.438,-1.486 -1.525,-1.476 -3.993,0.041 -7.988,0.049 -11.984,-0.003 -1.214,-0.017 -1.524,0.488 -1.519,1.609 0.046,15.041 0.001,30.084 0.016,45.128 0,1.856 0.02,1.875 1.817,1.878 3.912,0.005 7.827,-0.022 11.739,0.014 C -0.421,47.16 0,46.817 0,45.74 -0.021,30.494 -0.021,15.247 0,0"
       style="fill:#ffffff icc-color(sRGB-IEC61966-2, 0.1, 1, 1, 1);fill-opacity:1;fill-rule:nonzero;stroke:none"
       transform="matrix(0.35277776,0,0,-0.35277776,146.4572,155.3979)"
       clip-path="url(#clipPath38)" />
    <path
       id="path39"
       d="M 0,0 H -0.011 C -4.4,0.04 -8.33,0.04 -12.021,-0.01 V 0.1 C -12,9.12 -12,18.15 -12.011,27.18 v 18.43 h 4.231 c 1.75,-0.01 3.5,-0.01 5.24,0 0.85,0 1.689,0 2.54,0.01 L 0,43.07 C -0.021,28.71 -0.021,14.35 0,0 m 2.489,47.57 -0.05,0.06 C 2.38,47.72 2.319,47.79 2.239,47.87 1.47,48.64 0.39,48.62 0.029,48.62 -1.82,48.61 -3.67,48.6 -5.53,48.6 c -0.75,0.01 -1.5,0.01 -2.25,0.01 h -3.91 c -2.64,-0.01 -3.321,-0.7 -3.321,-3.381 V 27.18 C -15,18.15 -15,9.13 -15.021,0.11 c -0.009,-0.67 0.071,-1.64 0.791,-2.35 0.37,-0.36 0.81,-0.56 1.2,-0.66 0.38,-0.1 0.719,-0.11 0.929,-0.11 h 0.121 c 3.66,0.05 7.57,0.05 11.95,0.01 0.62,-0.01 1.559,0.06 2.259,0.76 C 2.93,-1.55 3,-0.6 3,-0.15 v 0.129 C 2.979,13.34 2.979,26.71 3,40.07 v 5.64 c 0,0.31 0,1.15 -0.511,1.86"
       style="fill:#ffffff icc-color(sRGB-IEC61966-2, 0.1, 1, 1, 1);fill-opacity:1;fill-rule:nonzero;stroke:none"
       transform="matrix(0.35277776,0,0,-0.35277776,145.92666,155.38792)"
       clip-path="url(#clipPath40)" />
    <path
       id="path41"
       d="m 0,0 c 0,-4.651 0.003,-9.3 -0.002,-13.952 0,-1.689 -0.061,-1.753 -1.696,-1.755 -3.917,-0.005 -7.832,-0.005 -11.749,0.002 -1.5,0.003 -1.604,0.103 -1.606,1.606 -0.008,7.873 -0.005,15.746 -0.005,23.62 0,1.921 -0.071,3.833 -0.553,5.708 -0.862,3.352 -2.876,5.269 -5.964,5.675 -7.986,1.022 -10.795,-5.011 -10.686,-11.635 -0.061,-7.668 -0.027,-15.338 -0.034,-23.008 0,-1.963 -0.005,-1.968 -1.983,-1.968 -3.794,-0.002 -7.589,0.024 -11.384,-0.015 -1.097,-0.012 -1.518,0.372 -1.515,1.493 0.022,15.216 0.022,30.433 -0.003,45.65 -0.002,1.129 0.424,1.496 1.518,1.484 3.795,-0.044 7.587,-0.039 11.382,-0.003 1.04,0.01 1.491,-0.35 1.451,-1.422 -0.054,-1.383 -0.015,-2.773 0.003,-4.159 0.005,-0.264 -0.076,-0.63 0.281,-0.732 0.279,-0.081 0.424,0.196 0.551,0.394 4.877,7.667 15.065,8.419 22.403,5.621 3.49,-1.332 5.875,-3.89 7.359,-7.298 C -0.57,21.487 -0.164,17.423 -0.061,13.34 0.055,8.896 -0.034,4.446 -0.034,0 Z"
       style="fill:#ffffff icc-color(sRGB-IEC61966-2, 0.1, 1, 1, 1);fill-opacity:1;fill-rule:nonzero;stroke:none"
       transform="matrix(0.35277776,0,0,-0.35277776,166.51074,150.37152)"
       clip-path="url(#clipPath42)" />
    <path
       id="path43"
       d="m 0,0 v -10.4 h -0.2 c -2.2,0 -4.4,0 -6.6,0.01 -1.72,-0.01 -3.43,0 -5.15,0 h -0.1 v 5.25 c -0.01,4.47 -0.01,8.94 -0.01,13.41 v 5.06 c 0,0.51 0,1.04 -0.02,1.56 -0.05,1.48 -0.19,3.01 -0.58,4.52 -0.01,0.03 -0.01,0.05 -0.02,0.08 -0.98,3.7 -3.24,5.96 -6.61,6.61 -0.19,0.04 -0.39,0.07 -0.6,0.1 -1.26,0.16 -2.43,0.17 -3.52,0.02 -1.97,-0.25 -3.66,-1.01 -5.04,-2.25 -2.19,-1.96 -3.49,-5.1 -3.76,-8.95 -0.04,-0.63 -0.06,-1.27 -0.05,-1.93 -0.01,-1.66 -0.02,-3.33 -0.02,-5 -0.02,-3.74 -0.02,-7.47 -0.02,-11.12 0,-2.3 0.01,-4.6 0,-6.9 v -0.47 h -0.48 l -3.5,0.01 c -2.63,0 -5.26,0.01 -7.9,-0.02 0.01,10.22 0.02,20.39 0.01,30.39 0.01,2.34 0,4.68 0,7 0,2.76 -0.01,5.5 -0.01,8.23 3.55,-0.04 7.26,-0.04 11.35,0 -0.04,-1.12 -0.03,-2.24 -0.01,-3.32 l 0.01,-0.85 c -0.05,-1.51 0.94,-1.96 1.37,-2.08 0.4,-0.12 1.42,-0.26 2.23,1.03 0.27,0.42 0.55,0.82 0.86,1.19 0.6,0.75 1.28,1.41 2.01,1.99 4.82,3.82 12.06,4.01 17.73,1.84 2.94,-1.12 5.13,-3.3 6.52,-6.49 1.65,-3.78 1.96,-7.89 2.05,-11.41 0.08,-3.07 0.06,-6.21 0.04,-9.24 0,-0.35 -0.01,-0.69 -0.01,-1.03 0,-1.01 -0.01,-2.02 -0.01,-3.03 l 0.01,-0.97 z m 2.97,5.2 c 0,0.88 0.01,1.76 0.01,2.65 0.02,3.06 0.04,6.22 -0.04,9.34 -0.1,3.81 -0.45,8.27 -2.3,12.52 -0.56,1.28 -1.22,2.43 -1.99,3.45 -0.81,1.07 -1.73,1.99 -2.76,2.76 -1.04,0.78 -2.19,1.42 -3.45,1.9 -6.66,2.53 -15.22,2.21 -20.94,-2.51 -0.47,-0.39 -0.93,-0.82 -1.36,-1.27 0.01,0.4 0.01,0.8 0.03,1.19 0.02,0.76 -0.12,1.37 -0.45,1.86 -0.08,0.12 -0.17,0.23 -0.27,0.34 -0.78,0.8 -1.88,0.78 -2.25,0.78 -0.88,-0.01 -1.74,-0.02 -2.58,-0.02 -3.09,-0.02 -5.98,-0.01 -8.77,0.02 -0.59,0 -1.55,-0.06 -2.25,-0.76 -0.78,-0.77 -0.78,-1.86 -0.78,-2.22 v -5.24 c 0.01,-2.32 0.01,-4.66 0.01,-7.01 0.01,-10.96 0,-22.15 -0.01,-33.39 0,-0.36 0,-1.46 0.78,-2.24 0.73,-0.71 1.71,-0.76 2.15,-0.76 h 0.1 c 2.62,0.02 5.24,0.02 7.87,0.02 l 3.5,-0.01 c 2.8,0 3.48,0.68 3.48,3.47 0.01,2.3 0,4.6 0,6.91 0,2.67 0,5.39 0.01,8.12 0,2.33 0.01,4.66 0.02,6.98 0.01,0.34 0.01,0.68 0.01,1.02 -0.07,3.89 0.93,6.95 2.81,8.63 1.45,1.3 3.47,1.81 6.01,1.52 0.06,-0.01 0.11,-0.01 0.17,-0.02 2.46,-0.33 4,-1.82 4.7,-4.56 0.03,-0.13 0.06,-0.25 0.09,-0.38 0.35,-1.52 0.42,-3.09 0.42,-4.96 V 8.27 c 0,-3.47 0,-6.94 0.01,-10.41 -0.01,-2.33 -0.01,-4.67 0,-7 v -1.15 c 0,-2.32 0.78,-3.1 3.1,-3.1 h 1.15 c 2.34,-0.01 4.67,-0.01 7.01,-0.01 h 3.59 c 2.48,0.01 3.2,0.74 3.2,3.26 L 3,3.81 Z m -15.63,14.21 c -0.01,0.03 -0.01,0.05 -0.02,0.08 -0.98,3.7 -3.24,5.96 -6.61,6.61 -0.19,0.04 -0.39,0.07 -0.6,0.1 -1.26,0.16 -2.43,0.17 -3.52,0.02 l 1.4,-1.4 c 0.61,0.01 1.25,-0.02 1.93,-0.11 3.09,-0.4 5.11,-2.32 5.97,-5.67 0.21,-0.84 0.35,-1.69 0.42,-2.54 l 1.61,-1.61 c -0.05,1.48 -0.19,3.01 -0.58,4.52"
       style="fill:#ffffff icc-color(sRGB-IEC61966-2, 0.1, 1, 1, 1);fill-opacity:1;fill-rule:nonzero;stroke:none"
       transform="matrix(0.35277776,0,0,-0.35277776,165.98194,151.71564)"
       clip-path="url(#clipPath44)" />
  </g>
</svg>
